<?xml version="1.0" encoding="UTF-8" standalone="no"?>

<svg
		version="1.1"
		id="svg2"
		width="644.8667"
		height="322.42667"
		viewBox="0 0 644.8667 322.42667"
		sodipodi:docname="kikaLeiner.eps"
		xmlns:inkscape="http://www.inkscape.org/namespaces/inkscape"
		xmlns:sodipodi="http://sodipodi.sourceforge.net/DTD/sodipodi-0.dtd"
		xmlns="http://www.w3.org/2000/svg"
		xmlns:svg="http://www.w3.org/2000/svg">
	<defs
			id="defs6" />
	<sodipodi:namedview
			id="namedview4"
			pagecolor="#ffffff"
			bordercolor="#000000"
			borderopacity="0.25"
			inkscape:showpageshadow="2"
			inkscape:pageopacity="0.0"
			inkscape:pagecheckerboard="0"
			inkscape:deskcolor="#d1d1d1" />
	<g
			id="g8"
			inkscape:groupmode="layer"
			inkscape:label="ink_ext_XXXXXX"
			transform="matrix(1.3333333,0,0,-1.3333333,0,322.42667)">
		<g
				id="g10"
				transform="scale(0.1)">
			<path
					d="M 0,0 H 2418.24 V 2418.25 H 0 V 0"
					style="fill:#ed1c24;fill-opacity:1;fill-rule:nonzero;stroke:none"
					id="path12" />
			<path
					d="m 1657.67,1069.7 0.05,0.01 c -0.03,-0.02 -0.06,-0.03 -0.08,-0.05 z m 332.96,55 -9.24,-34.45 c 0,0 -28.42,40.02 -98.88,44.18 -38.1,2.25 -71.7,-3.39 -94.96,-9.23 h -155.4 l 0.03,-0.12 -210.83,-0.38 66.39,229.51 -219.89,1.49 -67.78,-40.62 -15.22,-55.37 -1.34,-4.69 c -4.18,11.33 -10.47,21.88 -18.85,31.1 -19.02,20.92 -46.92,32.91 -76.54,32.91 -26.45,0 -52.29,-9.4 -72.75,-26.49 l -56.995,-42.75 c -37.789,-32.55 -39.699,-45.46 -40.762,-80.06 -0.687,-22.34 7.981,-38.32 13.91,-45.03 H 668.324 l 66.289,229.51 -219.886,1.49 -67.793,-40.62 -182.528,-664.791 h 247.797 l 40.242,30.16 11.11,-29.597 h 0.468 v -0.563 h 695.427 l 0.19,0.473 39.68,29.777 11.48,-30.527 h 206.07 l 39.12,30.527 h 0.1 c 9.52,-10.457 20.72,-19.418 34.08,-26.43 56.48,-29.5 157.23,-16.711 223.71,26.43 h 0.93 l -6.44,-29.687 h 227.17 l 0.84,-0.563 40.06,30.25 9.33,39.77 95.05,404.391 h -190.19"
					style="fill:#231f20;fill-opacity:1;fill-rule:nonzero;stroke:none"
					id="path14" />
			<path
					d="M 885.008,1091.43 726.676,1092.55 598.117,946.039 H 587.668 L 700.629,1326.75 526.676,1329 357.738,720.309 h 173.129 l 48.121,191.211 c 1.438,-0.18 2.309,-0.301 2.309,-0.301 L 652.898,720.91 h 187.54 l -95,216.039 139.57,154.481"
					style="fill:#ffffff;fill-opacity:1;fill-rule:nonzero;stroke:none"
					id="path16" />
			<path
					d="m 1633.66,1091.43 -158.33,1.12 -128.56,-146.511 h -10.45 l 112.96,380.711 -173.95,2.25 -168.94,-608.691 h 173.13 l 48.12,191.211 c 1.44,-0.18 2.31,-0.301 2.31,-0.301 l 71.6,-190.309 h 187.53 l -94.99,216.039 139.57,154.481"
					style="fill:#ffffff;fill-opacity:1;fill-rule:nonzero;stroke:none"
					id="path18" />
			<path
					d="m 1078.82,1138.54 c 20.15,0 39.84,7.3 55.43,20.56 17.12,14.55 27.76,35.25 29.21,56.81 1.35,20.13 -5.18,39.37 -18.4,54.19 -14.32,16.03 -35.39,25.24 -57.8,25.24 -20.16,0 -39.84,-7.31 -55.43,-20.57 -17.11,-14.54 -27.76,-35.25 -29.21,-56.81 -1.35,-20.13 5.18,-39.37 18.4,-54.18 14.32,-16.04 35.4,-25.24 57.8,-25.24"
					style="fill:#ffffff;fill-opacity:1;fill-rule:nonzero;stroke:none"
					id="path20" />
			<path
					d="m 1891.09,880.898 c -24.65,-38.437 -67.72,-58.457 -96.2,-44.687 -28.48,13.769 -31.58,56.098 -6.93,94.559 24.65,38.449 67.71,58.46 96.19,44.691 28.48,-13.77 31.59,-56.102 6.94,-94.563 m 119.32,212.272 -17.7,-62.52 c -11.6,21.93 -37.62,40.03 -60.99,52.23 -81.87,42.72 -203.79,-2.97 -272.33,-102.021 -68.53,-99.07 -57.72,-214 24.15,-256.711 65.53,-34.187 169.12,-11.699 238.05,49.43 v -0.387 l -11.27,-52.269 h 144.46 l 92.7,372.248 h -137.07"
					style="fill:#ffffff;fill-opacity:1;fill-rule:nonzero;stroke:none"
					id="path22" />
			<path
					d="M 974.512,1085.59 869.199,720.309 h 171.921 l 97.56,363.031 -164.168,2.25"
					style="fill:#ffffff;fill-opacity:1;fill-rule:nonzero;stroke:none"
					id="path24" />
			<path
					d="M 2418.24,0 H 4836.48 V 2418.25 H 2418.24 V 0"
					style="fill:#00a650;fill-opacity:1;fill-rule:nonzero;stroke:none"
					id="path26" />
			<path
					d="m 2707.79,758.551 c -54.13,-10.723 -65.92,22.508 -67.08,28.289 -1.15,5.781 3.84,19.41 32.24,25.308 85.22,10.711 118.69,-17 118.69,-17 -11.55,-5.75 -29.72,-25.878 -83.85,-36.597 M 3164.1,1085.4 c 19.62,11.34 58.78,36.09 109.68,56.68 0,0 73.94,97.76 42.32,170.65 -31.62,72.89 -152.75,90.04 -252.43,18.22 -99.69,-71.82 -133.46,-210.09 -158.11,-301.21 -24.66,-91.111 -58.83,-158.318 -58.96,-160.779 -0.12,-2.473 -137.2,50.379 -235.82,-46.102 -32.16,-32.148 -32.16,-98.609 76.11,-99.679 79.33,-0.36 141.47,34.789 154.71,45.082 17.51,-11.852 106.84,-74.032 119.7,-83.672 12.86,-9.649 70.74,-60.57 97.01,-78.25 26.26,-17.692 103.62,-68.711 103.62,-68.711 l 76.01,83.082 c 0,0 -133.54,85.32 -160.87,106.75 -27.34,21.437 -143.42,98.449 -149.7,103.359 15.17,25.27 93.96,144.262 115.93,225.72 21.97,81.47 38.59,162.93 92.72,236.9 54.13,73.96 132.92,53.59 117.91,-15.55 -15.01,-69.14 -30.67,-104.68 -89.83,-192.49"
					style="fill:#ffffff;fill-opacity:1;fill-rule:nonzero;stroke:none"
					id="path28" />
			<path
					d="m 3278.29,998.148 c 21.74,6.952 50.95,-15.359 22.41,-71.468 -14.07,-27.7 -68.6,-53.059 -106.72,-54.321 0,0 32.56,103.84 84.31,125.789 m 944.2,0.723 c 22.97,6.229 51.12,-25.609 15.87,-76.152 -13.27,-20.528 -62.89,-42.668 -102.93,-50.36 0,0 40.5,110.641 87.06,126.512 m 426.52,3.159 c -12.29,40.58 -55.49,27.47 -69.56,20.53 -14.07,-6.93 -47.19,-20.45 -95.46,-83.271 21.85,49.84 39.64,90.411 39.64,90.411 l -119.44,-13.2 c 0,0 -6.17,-83.09 -116.22,-192.762 -44.66,-40.527 -80.68,-46.656 -103.67,-48.957 -22.99,-2.293 -62.08,3.938 -55.4,64.34 19.34,3.539 141.26,24.801 185.72,80.109 31.06,42.45 29.54,99.62 -29.46,115.52 -33.81,9.47 -85.36,1.06 -145.34,-37.07 -59.97,-38.141 -114.5,-135.282 -123.32,-148.668 -8.83,-13.383 -38.2,-53.864 -61.39,-62.242 -23.19,-8.391 -55.18,-17.032 -35.43,29.628 19.75,46.672 65.97,102.59 73.14,155.293 7.17,52.699 -33.18,83.399 -93.4,56.789 -60.22,-26.6 -105.41,-60.769 -133.19,-94.058 21.91,59.476 33.11,89.898 33.11,89.898 l -117.26,-14.17 c 0,0 -26.74,-108.931 -83.27,-173.56 -34.55,-38.371 -61.44,-48.809 -79.08,-48.149 -17.65,0.661 -26.44,14.5 3.42,80.758 29.85,66.25 68.26,152.681 68.26,152.681 l -115.65,-10.27 c 0,0 -42.9,-116.52 -119.5,-181.84 -76.6,-65.321 -169.42,-89.641 -170.98,9.351 0,0 172.85,10.309 203.56,118.16 13.56,56.929 -39.32,116.589 -169.92,54.059 -71.1,-31.969 -153.91,-116.551 -146,-196.731 7.9,-80.168 83.25,-136.5 210.12,-69.211 47.01,29.153 82.71,51.114 127.56,96.18 -13.5,-31.43 -51.13,-112.797 48.58,-123.637 35.94,-2.8 103.74,50.258 157.73,98.231 -14.58,-30.031 -43.43,-89.422 -43.43,-89.422 l 114.01,12.211 c 0,0 65.31,146.769 101.37,180.879 36.05,34.121 51.85,49.629 72.27,50.558 20.41,0.934 25.28,-5.609 9.69,-36.339 -15.6,-30.719 -65.44,-112.727 -64.07,-141.207 1.38,-28.481 1.94,-86.973 85.53,-70.282 48.22,9.719 115.62,70.352 124.79,84.789 4.84,-19.339 23.77,-107.339 135.73,-83.968 74.97,17.48 130.91,48.558 190.04,114.75 -22.15,-60.559 -40.72,-111.391 -40.72,-111.391 l 110.21,13.672 c 0,0 58.41,124.84 89.14,169.027 16.25,25.43 33.46,41.039 47.37,31.903 8.55,-5.93 4.25,-27.571 -6.2,-49.442 44.32,5.93 102.07,13.66 102.07,13.66 0,0 16.59,55.879 4.3,96.46"
					style="fill:#ffffff;fill-opacity:1;fill-rule:nonzero;stroke:none"
					id="path30" />
			<path
					d="m 3570.98,1150.36 c 0,0 46.08,5.23 49.42,-28.23 3.35,-33.46 -55.16,-68.66 -94.58,-58.64 -39.42,10.03 -26.3,43.96 -18.18,53.03 8.13,9.07 26.06,30.11 63.34,33.84"
					style="fill:#ffffff;fill-opacity:1;fill-rule:nonzero;stroke:none"
					id="path32" />
		</g>
	</g>
</svg>